<svg width="265" height="64" viewBox="0 0 265 64" fill="none" xmlns="http://www.w3.org/2000/svg">
<path d="M53.3225 12.5308C54.7169 12.5552 55.5268 13.0342 56.0225 13.958C56.546 14.9331 56.4458 15.8948 55.7575 16.7614C53.4235 19.6947 51.0802 22.6199 48.7276 25.5369C47.7604 26.7423 46.7882 27.9429 45.8249 29.1507C45.2633 29.8564 45.6081 30.6572 46.5309 30.7267C49.4133 30.9436 52.2983 31.1289 55.1821 31.3361C57.8338 31.525 60.4868 31.7017 63.1348 31.926C63.7094 31.9692 64.2471 32.2156 64.6439 32.6176C65.0407 33.0197 65.2685 33.5488 65.2833 34.1028C65.3366 35.3729 64.6115 36.3699 63.3452 36.5758C62.1828 36.766 60.9977 36.8269 59.8226 36.9415C56.0199 37.2941 52.2172 37.6439 48.4145 37.9909C47.6996 38.0567 46.986 38.1213 46.2698 38.1628C45.7957 38.1896 45.3825 38.3054 45.1746 38.7478C44.9515 39.2244 45.1809 39.601 45.508 39.9569C49.0572 43.8522 52.5996 47.7505 56.1353 51.6515C57.2951 52.9276 57.1582 54.6511 55.826 55.5335C55.3552 55.85 54.7882 56.0069 54.2144 55.9793C53.6406 55.9517 53.0927 55.7412 52.6571 55.3811C50.4122 53.5968 48.1863 51.788 45.9541 49.989C44.0596 48.4566 42.1654 46.9294 40.2716 45.4075C39.9307 45.1332 39.5922 44.8529 39.0814 45.0772C38.5706 45.3014 38.4476 45.7353 38.4159 46.2241C38.0331 51.3651 37.6473 56.5061 37.2586 61.6471C37.2132 62.2926 36.9116 62.8967 36.4162 63.3345C35.9208 63.7723 35.2695 64.0103 34.5967 63.9995C33.1796 63.9995 32.0286 63.0244 31.9209 61.6642C31.6522 58.2247 31.4139 54.7827 31.1603 51.3407C31.026 49.4991 30.9068 47.655 30.7496 45.8146C30.7278 45.4553 30.5954 45.1104 30.3694 44.8237C29.9992 44.4117 29.534 44.4885 29.0765 44.8139C25.289 47.5018 21.4968 50.1832 17.7 52.8582C17.0371 53.3274 16.3779 53.8028 15.7074 54.2623C14.4208 55.1435 12.8224 54.9936 11.8895 53.8966C10.9565 52.7997 11.0554 51.2749 12.181 50.2218C19.9901 42.9194 27.8008 35.6158 35.6133 28.311C40.9092 23.3593 46.2026 18.4027 51.4934 13.4413C52.0917 12.8904 52.7509 12.493 53.3225 12.5308Z" fill="#32392D"/>
<path d="M26.2147 31.8683L17.1047 31.4502C12.2981 31.2268 7.49065 31.0021 2.68234 30.7762C1.47055 30.7189 0.585786 30.1668 0.166221 29.0577C0.0239184 28.6897 -0.028064 28.2951 0.0143276 27.9047C0.0567192 27.5143 0.192339 27.1385 0.410609 26.8068C0.628879 26.475 0.9239 26.1962 1.27266 25.9922C1.62142 25.7881 2.0145 25.6643 2.42122 25.6303C6.20492 25.311 9.99494 25.0367 13.7812 24.7406C14.6431 24.6735 15.5038 24.576 16.367 24.5248C16.8487 24.4968 17.3291 24.381 17.4153 23.9154C17.471 23.5291 17.3663 23.1372 17.1237 22.8246C14.9689 20.3991 12.7785 18.0077 10.5958 15.6091C9.4144 14.3098 8.22035 13.0215 7.04658 11.7088C6.03253 10.5814 6.08576 9.09565 7.14038 8.08524C8.15444 7.11018 9.60326 7.09677 10.7986 8.05355C14.6309 11.1169 18.461 14.1822 22.2891 17.2496C22.6377 17.53 22.9786 17.7981 23.4793 17.6153C23.98 17.4325 24.084 17.051 24.1435 16.6024C24.6201 13.041 25.1031 9.4808 25.5924 5.92182C25.7673 4.63474 25.9245 3.34521 26.1184 2.06057C26.3124 0.77592 27.4025 -0.0687288 28.7423 0.004401C30.0352 0.0750932 31.0036 1.08551 31.0442 2.39209C31.2622 9.53444 31.4832 16.6768 31.7071 23.8191C31.7528 25.2598 31.8339 26.698 31.8884 28.1374C31.9644 30.1558 30.2089 31.9243 28.111 31.9475C27.4772 31.9548 26.8435 31.9475 26.2097 31.9475L26.2147 31.8683Z" fill="#0DC28B"/>
<path d="M138.121 42.7906C138.099 39.9906 138.565 37.2082 139.499 34.5685C140.371 32.0905 141.7 29.7979 143.417 27.8097C145.07 25.8853 147.109 24.3302 149.402 23.2456C151.773 22.1355 154.364 21.5756 156.982 21.6078C159.607 21.5814 162.204 22.1409 164.586 23.2456C166.895 24.3231 168.95 25.8788 170.613 27.8097C172.33 29.7979 173.659 32.0905 174.53 34.5685C176.368 39.8959 176.368 45.6853 174.53 51.0126C173.66 53.4926 172.331 55.787 170.613 57.7762C168.948 59.7057 166.894 61.2612 164.586 62.3403C162.199 63.4449 159.597 64.0044 156.968 63.9781C154.35 64.0072 151.76 63.4475 149.388 62.3403C147.096 61.254 145.057 59.6992 143.403 57.7762C141.685 55.787 140.356 53.4926 139.485 51.0126C138.556 48.3721 138.094 45.5897 138.121 42.7906ZM146.905 42.7906C146.857 45.8791 147.204 48.9611 147.939 51.9613C148.628 54.5761 149.718 56.5852 151.209 57.9886C152.701 59.392 154.625 60.0968 156.982 60.1031C159.389 60.1031 161.326 59.3983 162.792 57.9886C164.258 56.5789 165.328 54.5698 166.002 51.9613C166.736 48.9611 167.084 45.8791 167.035 42.7906C167.087 39.6739 166.739 36.5635 166.002 33.5349C165.312 30.9201 164.236 28.911 162.773 27.5076C161.31 26.1042 159.38 25.4057 156.982 25.412C154.855 25.327 152.78 26.0852 151.209 27.5218C149.718 28.9283 148.628 30.9374 147.939 33.5491C147.202 36.573 146.855 39.6786 146.905 42.7906Z" fill="#32392D"/>
<path d="M189.287 62.9585H182.551V0H189.527V29.6597C191.377 25.5582 195.96 21.5368 202.955 21.5368C213.249 21.5368 220.693 29.9004 220.693 42.7763C220.693 55.5624 213.249 63.9261 202.955 63.9261C196.281 63.9261 191.297 59.985 189.268 55.9023L189.287 62.9585ZM189.697 43.404C189.697 52.183 193.714 58.1961 200.742 58.1961C207.822 58.1961 213.57 51.9187 213.57 42.9037C213.57 33.8132 207.845 27.6113 200.742 27.6113C193.714 27.6113 189.697 33.5442 189.697 42.3232V43.404Z" fill="#32392D"/>
<path d="M247.943 34.0868C247.943 30.8773 247.313 28.6134 246.055 27.2949C244.796 25.9765 242.933 25.3173 240.466 25.3173C238.517 25.3173 237.04 25.6571 236.039 26.3462C235.039 27.0353 234.533 27.7622 234.533 28.5835C234.531 28.8053 234.585 29.0242 234.69 29.2197C234.794 29.4153 234.947 29.5812 235.133 29.7021C235.553 30.0054 235.942 30.3501 236.294 30.731C236.711 31.2678 236.911 31.9415 236.856 32.619C236.875 33.1976 236.769 33.7736 236.546 34.3079C236.323 34.8421 235.987 35.3221 235.562 35.7152C234.674 36.529 233.501 36.9612 232.296 36.9188C231.636 36.9252 230.982 36.797 230.373 36.5421C229.764 36.2871 229.214 35.9107 228.755 35.4358C228.297 34.961 227.94 34.3977 227.706 33.7802C227.473 33.1628 227.367 32.5043 227.397 31.8449C227.422 29.8369 228.241 27.9206 229.677 26.5161C231.37 24.795 233.426 23.4728 235.695 22.6458C238.316 21.6462 241.102 21.1499 243.907 21.1827C248.205 21.1827 251.3 22.2431 253.191 24.3639C255.082 26.4847 256.026 29.1498 256.023 32.3594C256.023 34.6532 255.981 37.6315 255.896 40.3265C255.811 43.0216 255.726 45.6128 255.641 48.1049C255.556 50.597 255.509 52.6784 255.509 54.3398C255.471 55.2496 255.744 56.1451 256.283 56.8791C256.537 57.2033 256.865 57.462 257.239 57.6336C257.614 57.8052 258.024 57.8848 258.435 57.8656C259.328 57.8896 260.205 57.6175 260.927 57.0915C261.767 56.4092 262.492 55.5965 263.075 54.6844C263.218 54.5615 263.405 54.5004 263.594 54.5145C263.84 54.5227 264.084 54.5511 264.325 54.5994C264.482 54.6328 264.623 54.7189 264.725 54.8434C264.826 54.9679 264.882 55.1233 264.882 55.2838C264.576 57.7499 263.347 60.0082 261.442 61.6037C259.676 63.1334 257.415 63.9718 255.079 63.9637C254.163 63.9947 253.251 63.8349 252.4 63.4945C251.55 63.154 250.779 62.6403 250.137 61.9861C248.844 60.6645 248.141 58.8583 248.028 56.5676C247.283 57.943 246.342 59.2023 245.233 60.3058C244.097 61.4386 242.754 62.3437 241.278 62.9725C239.659 63.6508 237.917 63.9882 236.162 63.9637C233.615 64.0167 231.143 63.0987 229.247 61.3961C228.316 60.5863 227.575 59.5809 227.078 58.4517C226.58 57.3225 226.338 56.0974 226.368 54.8638C226.33 53.4664 226.577 52.0759 227.095 50.7774C227.613 49.4789 228.39 48.2997 229.379 47.3119C231.628 45.1475 234.321 43.4983 237.271 42.4788C240.715 41.2331 244.294 40.3967 247.933 39.9867L247.943 34.0868ZM234.184 52.9664C234.167 54.5953 234.783 56.1673 235.902 57.3511C236.969 58.4131 238.484 58.8096 240.202 58.8096C241.788 58.817 243.347 58.4016 244.719 57.606C246.048 56.8781 247.16 55.8115 247.943 54.5145V43.1868C245.551 43.4259 243.197 43.9552 240.934 44.7632C239.051 45.4025 237.353 46.495 235.992 47.9444C234.788 49.2849 234.312 50.9651 234.184 52.9711V52.9664Z" fill="#32392D"/>
<path d="M132.35 49.38C131.893 49.0677 131.363 48.8776 130.811 48.8278C130.753 48.8252 130.696 48.8373 130.644 48.8628C130.592 48.8884 130.547 48.9267 130.514 48.9741C128.596 51.7235 126.034 53.9614 123.052 55.4922C120.026 56.9818 116.692 57.7355 113.319 57.6917C110.476 57.6848 107.664 57.0987 105.055 55.969C102.315 54.7948 99.8395 53.0803 97.7768 50.9281C95.5341 48.5752 93.7905 45.7929 92.6511 42.7486C91.3304 39.152 90.6902 35.3412 90.7631 31.5105C90.7631 26.5169 91.6394 22.1966 93.3921 18.5497C95.1447 14.9028 97.4685 12.1039 100.363 10.1531C103.164 8.23343 106.483 7.21267 109.879 7.22673C112.784 7.16294 115.653 7.87666 118.19 9.29404C120.713 10.7964 122.91 12.7879 124.652 15.1514C126.666 17.8383 128.467 20.6789 130.037 23.6472C130.095 23.7531 130.188 23.8363 130.299 23.8834C130.41 23.9305 130.534 23.9387 130.651 23.9068C130.938 23.8223 131.215 23.7067 131.477 23.5622C131.711 23.4581 131.903 23.2777 132.021 23.0506C132.139 22.8234 132.177 22.5629 132.128 22.3115L131.359 10.1814C131.359 9.12884 130.844 8.39254 129.881 7.63264C128.574 6.59899 127.026 6.0326 125.487 5.44261C123.85 4.80113 122.173 4.2682 120.465 3.84729L120.258 3.79537C117.532 3.16712 114.743 2.85043 111.946 2.8514C107.916 2.83293 103.923 3.60921 100.193 5.13582C96.494 6.65175 93.1318 8.88597 90.3011 11.7093C87.4705 14.5327 85.2276 17.8891 83.7022 21.5846C82.0528 25.6132 81.2325 29.933 81.2903 34.2858C81.2199 38.5282 82.0416 42.738 83.7022 46.6425C86.6866 53.5849 92.2808 59.0758 99.2778 61.9302C102.556 63.284 106.067 63.9862 109.614 63.9975C114.45 64.0637 119.222 62.8922 123.477 60.5944C127.516 58.4057 130.867 55.1375 133.157 51.1547C133.191 51.0974 133.209 51.0323 133.209 50.9659C133.209 50.6509 133.131 50.3407 132.981 50.0637C132.831 49.7867 132.614 49.5517 132.35 49.38Z" fill="#32392D"/>
</svg>
